<svg version="1.2" xmlns="http://www.w3.org/2000/svg" viewBox="0 0 10 10" width="10" height="10"><defs><clipPath clipPathUnits="userSpaceOnUse" id="cp1"><path d="m-838-487h960v540h-960z"/></clipPath></defs><style>.a{fill:#fff}</style><g clip-path="url(#cp1)"><path fill-rule="evenodd" class="a" d="m9.4 3.3v3.7c0 1.4-1.1 2.6-2.5 2.6h-3.8c-1.4 0-2.5-1.2-2.5-2.6v-3.7c0-1.4 1.1-2.5 2.5-2.5h3.8c1.4 0 2.5 1.1 2.5 2.5zm-0.8 0c0-1-0.8-1.7-1.7-1.7h-3.8c-0.9 0-1.7 0.7-1.7 1.7v3.8c0 0.9 0.8 1.7 1.7 1.7h3.8c0.9 0 1.7-0.8 1.7-1.7z"/><path fill-rule="evenodd" class="a" d="m7.3 5.2c0 1.2-1 2.3-2.3 2.3-1.3 0-2.3-1.1-2.3-2.3 0-1.3 1-2.3 2.3-2.3 1.3 0 2.3 1 2.3 2.3zm-0.8 0c0-0.8-0.7-1.5-1.5-1.5-0.8 0-1.5 0.7-1.5 1.5 0 0.8 0.7 1.5 1.5 1.5 0.8 0 1.5-0.7 1.5-1.5z"/><path class="a" d="m7.4 3.3c-0.3 0-0.6-0.2-0.6-0.5 0-0.3 0.3-0.5 0.6-0.5 0.3 0 0.5 0.2 0.5 0.5 0 0.3-0.2 0.5-0.5 0.5z"/></g></svg>