<svg version="1.2" xmlns="http://www.w3.org/2000/svg" viewBox="0 0 10 9" width="10" height="9"><defs><clipPath clipPathUnits="userSpaceOnUse" id="cp1"><path d="m-891-488h960v540h-960z"/></clipPath></defs><style>.a{fill:#fff}</style><g clip-path="url(#cp1)"><path class="a" d="m0.7 2.7h1.7v5.5h-1.7z"/><path class="a" d="m9.1 5.1v3.1h-1.9v-2.8c0-0.8-0.3-1.3-0.9-1.3-0.5 0-0.8 0.4-1 0.7 0 0.1 0 0.3 0 0.4v3h-1.9c0 0 0-5 0-5.5h1.9v0.9c0.1-0.4 0.7-0.9 1.7-0.9 1.2 0 2.1 0.8 2.1 2.4z"/><path class="a" d="m2.5 1.1c0 0.5-0.4 1-1 1-0.6 0-1-0.5-1-1 0-0.5 0.4-0.9 1-0.9 0.6 0 1 0.4 1 0.9z"/></g></svg>