<svg version="1.2" xmlns="http://www.w3.org/2000/svg" viewBox="0 0 643 540" width="643" height="540"><defs><clipPath clipPathUnits="userSpaceOnUse" id="cp1"><path d="m-317 0h960v540h-960z"/></clipPath></defs><style>.a{fill:none;stroke:#fff}</style><g clip-path="url(#cp1)"><path fill-rule="evenodd" class="a" d="m609.6 491.8c0 1-0.1 1.8-0.1 2.2q0 0-0.1 0.1 0 0 0 0c-0.1 0.4-0.4 0.6-0.8 0.6h0.1c0 0-1.6 0.2-3.6 0.3-2.1-0.1-3.6-0.3-3.6-0.3h0.1c-0.4 0-0.7-0.2-0.9-0.6q0 0 0 0 0-0.1 0-0.1c0-0.4-0.1-1.2-0.1-2.2 0-0.9 0.1-1.7 0.1-2.1q0-0.1 0-0.1 0 0 0-0.1c0.2-0.3 0.5-0.6 0.9-0.6h-0.1c0 0 1.5-0.2 3.6-0.2 2 0 3.6 0.2 3.6 0.2h-0.1c0.4 0 0.7 0.3 0.8 0.6q0 0.1 0 0.1 0.1 0 0.1 0.1c0 0.4 0.1 1.2 0.1 2.1zm-3.1 0q0-0.1-0.1-0.1l-1.8-1.4q-0.1 0-0.2 0-0.1 0.1-0.1 0.2v2.7q0 0.1 0.1 0.2 0 0 0.1 0 0 0 0.1-0.1l1.8-1.3q0.1 0 0.1-0.2z"/></g></svg>